<?xml version="1.0" encoding="utf-8"?>
<!-- Generator: Adobe Illustrator 24.1.0, SVG Export Plug-In . SVG Version: 6.00 Build 0)  -->
<svg version="1.1" id="Layer_1" xmlns="http://www.w3.org/2000/svg" xmlns:xlink="http://www.w3.org/1999/xlink" x="0px" y="0px"
	 viewBox="0 0 100 60" style="enable-background:new 0 0 100 60;" xml:space="preserve">
<style type="text/css">
	.st0{fill:#2C6FB6;}
	.st1{fill:#FFFFFF;}
</style>
<g>
	<g>
		<path class="st1" d="M55.6,25.3h-2.4v3.3h2.4c1.1,0,1.7-0.6,1.7-1.7C57.3,26,56.7,25.3,55.6,25.3z"/>
		<path class="st1" d="M70.1,32c-1,0-1.3,0.3-1.3,0.9c0,0.6,0.3,0.9,1.2,0.9c0.6,0,1.1,0,1.5-0.1c0.1,0,0.1-0.1,0.1-0.1V32
			c-0.1,0-0.3,0-0.7,0C70.6,32,70.3,32,70.1,32z"/>
		<path class="st1" d="M88.8,21.6c-3.5-6.1-11.3-4.4-17-4.2c-7.1,0.2-13.2,0.5-20.3,1c-2.9,0.2-5.7,1.2-7,4.1
			c-1.6,3.6-0.4,7.5,0.2,11.3c0.3,2.1,0.7,4.6,2.2,6.1c0.9,0.8,2,1.3,3.2,1.5c2.9,0.6,27,2.1,31.8,1.3c2.6-0.4,4.8-1.6,6.2-4.4
			c1.2-2.3,1.3-5.6,1.7-8.2C90.1,27.3,90.3,24.2,88.8,21.6z M55.9,31.4h-2.7v3.5c0,0.6-0.2,0.8-0.8,0.8H51c-0.6,0-0.8-0.2-0.8-0.8
			V23.4c0-0.6,0.2-0.8,0.8-0.8h4.9c2.8,0,4.5,1.7,4.5,4.4S58.7,31.4,55.9,31.4z M64.6,35c0,0.5-0.2,0.7-0.7,0.7h-1.4
			c-0.5,0-0.7-0.2-0.7-0.7V23.3c0-0.5,0.2-0.7,0.7-0.7h1.4c0.5,0,0.7,0.2,0.7,0.7V35z M74.4,34.4c0,0.6-0.1,0.8-0.7,1.1
			c-0.7,0.3-1.9,0.5-3.5,0.5c-1.6,0-2.7-0.2-3.3-0.7c-0.6-0.5-0.9-1.2-0.9-2.3c0-2.3,1.2-3,4.3-3c0.5,0,0.9,0,1.3,0v-0.4
			c0-0.9-0.5-1.4-1.4-1.4c-0.7,0-1.2,0.2-1.5,0.7c-0.3,0.4-0.4,0.5-0.9,0.3l-1-0.4c-0.5-0.2-0.6-0.5-0.4-1c0.7-1.3,2-1.9,3.9-1.9
			c2.7,0,4.1,1.3,4.1,3.9V34.4z M84.6,35.8c0,2.6-1.3,4.1-4.2,4.1c-1.9,0-3.2-0.6-3.9-1.7c-0.3-0.5-0.2-0.8,0.3-1.1l1-0.5
			c0.5-0.3,0.8-0.2,1.1,0.2c0.3,0.5,0.8,0.7,1.5,0.7c1,0,1.5-0.5,1.5-1.5v-0.8c-0.4,0.1-1,0.1-1.7,0.1c-2.6,0-4-1.3-4-3.8v-4.8
			c0-0.5,0.2-0.7,0.7-0.7h1.4c0.5,0,0.7,0.2,0.7,0.7v4.7c0,0.9,0.5,1.4,1.6,1.4c0.4,0,0.9,0,1.3-0.1v-5.9c0-0.5,0.2-0.7,0.7-0.7h1.4
			c0.5,0,0.7,0.2,0.7,0.7V35.8z"/>
	</g>
	<g>
		<path class="st1" d="M22.1,34.9c0.2,0.5,0,0.7-0.5,0.7h-1.4c-0.9,0-1.2-0.1-1.4-0.7l-0.6-1.7h-4.5L13.2,35
			c-0.2,0.5-0.4,0.7-1.3,0.7h-1.3c-0.5,0-0.7-0.2-0.5-0.7l4.4-11.7c0.2-0.5,0.4-0.6,0.9-0.6h1.4c0.5,0,0.8,0.1,0.9,0.6L22.1,34.9z
			 M16.1,26l-1.5,4.8h3L16.1,26z"/>
		<path class="st1" d="M25.9,23.9c0.5,0,0.7,0.2,0.7,0.7v1.5h1.7c0.5,0,0.7,0.2,0.7,0.7v1.1c0,0.5-0.2,0.7-0.7,0.7h-1.7v3.1
			c0,1.4,0.4,1.7,1.7,1.7c0.5,0,0.7,0.2,0.7,0.7v1.2c0,0.5-0.2,0.7-0.7,0.7c-1.6,0.1-2.8-0.2-3.4-0.8c-0.7-0.6-1-1.7-1-3.3v-3.2h-1
			c-0.5,0-0.7-0.2-0.7-0.7v-1.1c0-0.5,0.2-0.7,0.7-0.7h1v-1.5c0-0.5,0.2-0.7,0.7-0.7H25.9z"/>
		<path class="st1" d="M30.6,29.7c0-2.4,1.5-3.9,4.4-3.9c2.9,0,4.4,1.4,4.4,3.9v2.4c0,2.4-1.5,3.9-4.4,3.9c-2.8,0-4.4-1.4-4.4-3.9
			V29.7z M36.6,29.7c0-0.9-0.5-1.4-1.6-1.4c-1.1,0-1.6,0.5-1.6,1.4v2.4c0,0.9,0.5,1.4,1.6,1.4c1.1,0,1.6-0.5,1.6-1.4V29.7z"/>
	</g>
</g>
</svg>
